<?xml version="1.0" standalone="no"?>
<!DOCTYPE svg PUBLIC "-//W3C//DTD SVG 20010904//EN"
 "http://www.w3.org/TR/2001/REC-SVG-20010904/DTD/svg10.dtd">
<svg version="1.0" xmlns="http://www.w3.org/2000/svg"
 width="512.000000pt" height="512.000000pt" viewBox="0 0 512.000000 512.000000"
 preserveAspectRatio="xMidYMid meet">
<metadata>
Created by potrace 1.11, written by Peter Selinger 2001-2013
</metadata>
<g transform="translate(0.000000,512.000000) scale(0.100000,-0.100000)"
fill="#000000" stroke="none">
<path d="M4527 4604 c-1 -1 -37 -5 -80 -8 -105 -8 -240 -27 -377 -51 -641
-115 -1302 -405 -1800 -789 -192 -147 -472 -411 -515 -483 l-19 -32 -145 0
c-274 0 -452 -52 -566 -165 -133 -132 -276 -356 -367 -576 -60 -143 -118 -322
-135 -409 -2 -14 -6 -29 -9 -33 -7 -11 48 -5 261 27 72 11 89 14 205 30 63 9
126 18 140 20 14 2 45 7 70 10 25 3 57 8 71 11 15 2 45 6 66 9 l39 5 0 -135
c-1 -75 2 -143 5 -153 4 -9 119 -130 257 -267 l251 -250 146 0 146 0 -5 -30
c-3 -16 -8 -52 -11 -80 -4 -27 -8 -57 -10 -65 -2 -8 -7 -37 -10 -65 -4 -27 -8
-61 -10 -75 -5 -30 -44 -302 -49 -345 -3 -16 -10 -65 -16 -108 -6 -43 -10 -80
-8 -82 5 -5 216 53 253 69 17 8 48 19 70 26 122 38 350 149 475 233 314 210
395 370 392 772 l-2 121 32 19 c39 23 253 234 334 330 32 39 61 72 64 75 54
51 281 381 375 545 123 215 293 589 330 725 1 3 4 12 7 20 69 187 162 575 192
800 13 92 17 132 23 215 10 153 13 139 -30 140 -21 0 -39 -1 -40 -1z m-1207
-1030 c83 -14 185 -95 229 -182 27 -52 40 -140 30 -200 -44 -280 -397 -388
-584 -179 -73 80 -90 128 -89 242 2 156 122 297 272 321 20 3 38 7 40 9 3 3
54 -2 102 -11z"/>
<path d="M1171 1687 c-79 -32 -168 -122 -213 -217 -35 -72 -68 -172 -74 -217
-1 -12 -5 -34 -8 -50 -13 -63 -16 -97 -21 -211 -3 -87 -1 -123 8 -130 13 -11
204 -9 278 3 24 3 58 9 74 11 17 3 48 10 70 15 209 55 325 132 390 261 l36 72
-41 41 -40 40 -23 -26 c-63 -74 -159 -109 -289 -104 -51 1 -101 6 -111 10 -25
10 -32 46 -32 160 0 88 4 107 28 158 15 31 44 74 63 94 l35 36 -38 38 -38 37
-54 -21z"/>
</g>
</svg>
