<svg width="94" height="24" viewBox="0 0 94 24" fill="none" xmlns="http://www.w3.org/2000/svg">
    <path fill-rule="evenodd" clip-rule="evenodd" d="M2.34376 10.4267L5.20828 11.604C4.88531 12.4122 4.62768 13.2446 4.43782 14.0933L4.32917 14.5829L8.43582 18.6559L8.9297 18.5506C9.78593 18.3625 10.6257 18.1071 11.4411 17.7869L12.6289 20.6263C12.6525 20.6835 12.7036 20.725 12.7648 20.7368C12.826 20.7487 12.889 20.7292 12.9326 20.685L14.7279 18.9056C15.3204 18.3184 15.6344 17.51 15.5922 16.6806L15.528 15.5375C18.8518 13.1045 22.2152 8.83808 23.1313 1.39211C23.184 1.01369 23.0554 0.632596 22.7836 0.361759C22.5118 0.0909213 22.128 -0.0385926 21.746 0.0115964C14.2365 0.927044 9.92982 4.26329 7.47521 7.54813L6.32446 7.48938C5.48954 7.44435 4.67428 7.75106 4.07976 8.33385L2.28449 10.1133C2.23386 10.156 2.21017 10.2223 2.22241 10.287C2.23466 10.3518 2.28097 10.4051 2.34376 10.4267ZM13.8611 6.08936C14.7298 5.23125 16.1356 5.23286 17.0023 6.09296C17.869 6.95306 17.869 8.3465 17.0023 9.2066C16.1356 10.0667 14.7298 10.0683 13.8611 9.2102C13.4426 8.79685 13.2074 8.23537 13.2074 7.64978C13.2074 7.0642 13.4426 6.50271 13.8611 6.08936ZM0.326162 18.8639C0.821994 18.7756 1.33246 18.816 1.80781 18.9814C-0.459114 20.7829 -0.0294349 22.8733 0.24714 23.8083C0.274739 23.9028 0.352583 23.9746 0.44968 23.9951C0.546777 24.0156 0.647363 23.9814 0.711391 23.9062C1.4942 23.0201 3.41047 22.6848 4.44762 22.5746C5.17393 22.5034 5.84277 22.1517 6.30957 21.5956C7.37883 20.2909 6.41328 18.9398 6.06263 18.5261C6.03871 18.4971 6.0029 18.4802 5.96508 18.4802C5.92727 18.4802 5.89146 18.4971 5.86754 18.5261C5.32304 19.1981 4.48918 19.5741 3.62037 19.5395C3.51561 19.5357 3.43157 19.4524 3.42775 19.3485C3.39854 18.4836 3.7864 17.6566 4.47232 17.1211C4.49901 17.0974 4.51426 17.0636 4.51426 17.0281C4.51426 16.9926 4.49901 16.9588 4.47232 16.9351C1.9461 15.114 0.550879 17.3683 0.0248924 18.4894C-0.0225867 18.5911 -0.000883239 18.7114 0.0792196 18.7905C0.143337 18.8554 0.236586 18.8831 0.326162 18.8639Z" fill="white"/>
    <path d="M36.6704 12.5959C36.6704 12.6268 36.655 12.8428 36.6241 13.2439H30.3447C30.4579 13.7582 30.7253 14.1645 31.147 14.4628C31.5687 14.761 32.0933 14.9102 32.7207 14.9102C33.1527 14.9102 33.5333 14.8485 33.8624 14.725C34.2019 14.5913 34.5156 14.3856 34.8036 14.1079L36.0841 15.4965C35.3024 16.3913 34.1607 16.8388 32.659 16.8388C31.723 16.8388 30.895 16.6588 30.175 16.2988C29.455 15.9285 28.8996 15.4193 28.5087 14.7713C28.1179 14.1233 27.9224 13.3879 27.9224 12.565C27.9224 11.7525 28.1127 11.0222 28.4933 10.3742C28.8841 9.7159 29.4139 9.20676 30.0824 8.84676C30.7613 8.47647 31.5173 8.29133 32.3504 8.29133C33.163 8.29133 33.8984 8.46619 34.5567 8.8159C35.215 9.16562 35.7293 9.66962 36.0996 10.3279C36.4801 10.9759 36.6704 11.7319 36.6704 12.5959ZM32.3659 10.1119C31.8207 10.1119 31.363 10.2662 30.9927 10.5748C30.6224 10.8833 30.3961 11.305 30.3139 11.8399H34.4024C34.3201 11.3153 34.0939 10.8988 33.7236 10.5902C33.3533 10.2713 32.9007 10.1119 32.3659 10.1119ZM46.361 8.41476L42.8587 16.7153H40.3747L36.8879 8.41476H39.3719L41.6707 14.0616L44.0467 8.41476H46.361ZM51.0669 16.8388C50.1926 16.8388 49.4057 16.6588 48.7063 16.2988C48.0171 15.9285 47.4771 15.4193 47.0863 14.7713C46.6954 14.1233 46.5 13.3879 46.5 12.565C46.5 11.7422 46.6954 11.0068 47.0863 10.3588C47.4771 9.71076 48.0171 9.20676 48.7063 8.84676C49.4057 8.47647 50.1926 8.29133 51.0669 8.29133C51.9411 8.29133 52.7229 8.47647 53.412 8.84676C54.1011 9.20676 54.6411 9.71076 55.032 10.3588C55.4229 11.0068 55.6183 11.7422 55.6183 12.565C55.6183 13.3879 55.4229 14.1233 55.032 14.7713C54.6411 15.4193 54.1011 15.9285 53.412 16.2988C52.7229 16.6588 51.9411 16.8388 51.0669 16.8388ZM51.0669 14.8639C51.684 14.8639 52.188 14.6582 52.5789 14.2468C52.98 13.825 53.1806 13.2645 53.1806 12.565C53.1806 11.8656 52.98 11.3102 52.5789 10.8988C52.188 10.477 51.684 10.2662 51.0669 10.2662C50.4497 10.2662 49.9406 10.477 49.5394 10.8988C49.1383 11.3102 48.9377 11.8656 48.9377 12.565C48.9377 13.2645 49.1383 13.825 49.5394 14.2468C49.9406 14.6582 50.4497 14.8639 51.0669 14.8639ZM59.8654 8.5999H61.9945V10.4513H59.9271V16.7153H57.5202V10.4513H56.2396V8.5999H57.5202V8.22962C57.5202 7.28333 57.7979 6.53247 58.3534 5.97705C58.9191 5.42162 59.7111 5.1439 60.7294 5.1439C61.0894 5.1439 61.4288 5.18505 61.7476 5.26733C62.0768 5.33933 62.3494 5.44733 62.5654 5.59133L61.9328 7.33476C61.6551 7.13933 61.3311 7.04162 60.9608 7.04162C60.2305 7.04162 59.8654 7.44276 59.8654 8.24505V8.5999ZM63.1979 5.26733H65.6048V16.7153H63.1979V5.26733ZM71.1973 8.29133C72.483 8.29133 73.4704 8.5999 74.1596 9.21705C74.8487 9.8239 75.1933 10.7445 75.1933 11.9788V16.7153H72.9407V15.6816C72.4881 16.453 71.6447 16.8388 70.4104 16.8388C69.7727 16.8388 69.2173 16.7308 68.7441 16.5148C68.2813 16.2988 67.9264 16.0005 67.6796 15.6199C67.4327 15.2393 67.3093 14.8073 67.3093 14.3239C67.3093 13.5525 67.5973 12.9456 68.1733 12.5033C68.7596 12.061 69.6596 11.8399 70.8733 11.8399H72.7864C72.7864 11.3153 72.627 10.9142 72.3081 10.6365C71.9893 10.3485 71.511 10.2045 70.8733 10.2045C70.431 10.2045 69.9938 10.2765 69.5618 10.4205C69.1401 10.5542 68.7801 10.7393 68.4818 10.9759L67.6178 9.29419C68.0704 8.97533 68.6104 8.72847 69.2378 8.55362C69.8756 8.37876 70.5287 8.29133 71.1973 8.29133ZM71.0121 15.2188C71.4236 15.2188 71.7887 15.1262 72.1076 14.941C72.4264 14.7456 72.6527 14.4628 72.7864 14.0925V13.2439H71.1356C70.1481 13.2439 69.6544 13.5679 69.6544 14.2159C69.6544 14.5245 69.7727 14.7713 70.0093 14.9565C70.2561 15.1313 70.5904 15.2188 71.0121 15.2188ZM79.6705 9.51019C79.9585 9.10905 80.3442 8.80562 80.8276 8.5999C81.3213 8.39419 81.887 8.29133 82.5247 8.29133V10.513C82.2573 10.4925 82.0773 10.4822 81.9847 10.4822C81.2956 10.4822 80.7556 10.6776 80.3647 11.0685C79.9739 11.449 79.7785 12.025 79.7785 12.7965V16.7153H77.3716V8.41476H79.6705V9.51019ZM92.0114 12.5959C92.0114 12.6268 91.996 12.8428 91.9651 13.2439H85.6857C85.7988 13.7582 86.0662 14.1645 86.488 14.4628C86.9097 14.761 87.4342 14.9102 88.0617 14.9102C88.4937 14.9102 88.8742 14.8485 89.2034 14.725C89.5428 14.5913 89.8565 14.3856 90.1445 14.1079L91.4251 15.4965C90.6434 16.3913 89.5017 16.8388 88 16.8388C87.064 16.8388 86.236 16.6588 85.516 16.2988C84.796 15.9285 84.2405 15.4193 83.8497 14.7713C83.4588 14.1233 83.2634 13.3879 83.2634 12.565C83.2634 11.7525 83.4537 11.0222 83.8342 10.3742C84.2251 9.7159 84.7548 9.20676 85.4234 8.84676C86.1022 8.47647 86.8582 8.29133 87.6914 8.29133C88.504 8.29133 89.2394 8.46619 89.8977 8.8159C90.556 9.16562 91.0702 9.66962 91.4405 10.3279C91.8211 10.9759 92.0114 11.7319 92.0114 12.5959ZM87.7068 10.1119C87.1617 10.1119 86.704 10.2662 86.3337 10.5748C85.9634 10.8833 85.7371 11.305 85.6548 11.8399H89.7434C89.6611 11.3153 89.4348 10.8988 89.0645 10.5902C88.6942 10.2713 88.2417 10.1119 87.7068 10.1119Z" fill="white"/>
</svg>
