<svg width="24" height="24" xmlns="http://www.w3.org/2000/svg">

 <g>
  <title>background</title>
  <rect fill="none" id="canvas_background" height="26" width="26" y="-1" x="-1"/>
 </g>
 <g>
  <title>Layer 1</title>
  <path id="svg_1" fill="#0091FF" d="m2.34376,10.4267l2.86452,1.1773c-0.32297,0.8082 -0.5806,1.6406 -0.77046,2.4893l-0.10865,0.4896l4.10665,4.073l0.49388,-0.1053c0.85623,-0.1881 1.696,-0.4435 2.5114,-0.7637l1.1878,2.8394c0.0236,0.0572 0.0747,0.0987 0.1359,0.1105c0.0612,0.0119 0.1242,-0.0076 0.1678,-0.0518l1.7953,-1.7794c0.5925,-0.5872 0.9065,-1.3956 0.8643,-2.225l-0.0642,-1.1431c3.3238,-2.433 6.6872,-6.69942 7.6033,-14.14539c0.0527,-0.37842 -0.0759,-0.75951 -0.3477,-1.03035c-0.2718,-0.27084 -0.6556,-0.40035 -1.0376,-0.35016c-7.5095,0.91544 -11.81618,4.25169 -14.27079,7.53653l-1.15075,-0.05875c-0.83492,-0.04503 -1.65018,0.26168 -2.2447,0.84447l-1.79527,1.77945c-0.05063,0.0427 -0.07432,0.109 -0.06208,0.1737c0.01225,0.0648 0.05856,0.1181 0.12135,0.1397zm11.51734,-4.33734c0.8687,-0.85811 2.2745,-0.8565 3.1412,0.0036c0.8667,0.8601 0.8667,2.25354 0,3.11364c-0.8667,0.8601 -2.2725,0.8617 -3.1412,0.0036c-0.4185,-0.41335 -0.6537,-0.97483 -0.6537,-1.56042c0,-0.58558 0.2352,-1.14707 0.6537,-1.56042zm-13.53494,12.77454c0.49583,-0.0883 1.0063,-0.0479 1.48165,0.1175c-2.26692,1.8015 -1.83724,3.8919 -1.56067,4.8269c0.0276,0.0945 0.10544,0.1663 0.20254,0.1868c0.0971,0.0205 0.19768,-0.0137 0.26171,-0.0889c0.78281,-0.8861 2.69908,-1.2214 3.73623,-1.3316c0.72631,-0.0712 1.39515,-0.4229 1.86195,-0.979c1.06926,-1.3047 0.10371,-2.6558 -0.24694,-3.0695c-0.02392,-0.029 -0.05973,-0.0459 -0.09755,-0.0459c-0.03781,0 -0.07362,0.0169 -0.09754,0.0459c-0.5445,0.672 -1.37836,1.048 -2.24717,1.0134c-0.10476,-0.0038 -0.1888,-0.0871 -0.19262,-0.191c-0.02921,-0.8649 0.35865,-1.6919 1.04457,-2.2274c0.02669,-0.0237 0.04194,-0.0575 0.04194,-0.093c0,-0.0355 -0.01525,-0.0693 -0.04194,-0.093c-2.52622,-1.8211 -3.92144,0.4332 -4.44743,1.5543c-0.04748,0.1017 -0.02577,0.222 0.05433,0.3011c0.06412,0.0649 0.15737,0.0926 0.24694,0.0734z" clip-rule="evenodd" fill-rule="evenodd"/>
 </g>
</svg>